<svg width="15" height="16" viewBox="0 0 15 16" fill="none" xmlns="http://www.w3.org/2000/svg">
<path d="M2.92431 0.600586C2.66652 0.600586 2.41929 0.702993 2.23701 0.885278C2.05472 1.06756 1.95231 1.3148 1.95231 1.57259C1.95231 1.83038 2.05472 2.07761 2.23701 2.25989C2.41929 2.44218 2.66652 2.54459 2.92431 2.54459H11.5816L0.410074 13.7161C0.314576 13.8051 0.23798 13.9124 0.184854 14.0316C0.131728 14.1509 0.103162 14.2796 0.100859 14.4101C0.0985566 14.5406 0.122565 14.6702 0.171451 14.7913C0.220338 14.9123 0.293101 15.0222 0.385401 15.1145C0.4777 15.2068 0.587645 15.2796 0.708676 15.3285C0.829707 15.3774 0.959345 15.4014 1.08986 15.3991C1.22037 15.3968 1.34908 15.3682 1.46831 15.3151C1.58754 15.262 1.69485 15.1854 1.78383 15.0899L12.9554 3.91835V12.5756C12.9554 12.8334 13.0578 13.0806 13.24 13.2629C13.4223 13.4452 13.6696 13.5476 13.9274 13.5476C14.1851 13.5476 14.4324 13.4452 14.6147 13.2629C14.7969 13.0806 14.8994 12.8334 14.8994 12.5756V1.57259C14.8971 1.44356 14.8707 1.31609 14.8216 1.19675C14.7511 1.03104 14.6364 0.887851 14.4902 0.782743C14.344 0.677634 14.1717 0.614632 13.9922 0.600586H2.92431Z" fill="#FFFAFA"/>
</svg>
