<svg width="72" height="72" viewBox="0 0 72 72" fill="none" xmlns="http://www.w3.org/2000/svg">
<mask id="mask0_295_80" style="mask-type:luminance" maskUnits="userSpaceOnUse" x="0" y="0" width="72" height="72">
<path d="M0 0H72V72H0V0Z" fill="white"/>
</mask>
<g mask="url(#mask0_295_80)">
<path d="M43.0462 42.2657C42.2298 42.9743 41.5498 43.5448 40.8949 44.137C39.5028 45.3937 37.9995 46.5264 36.3137 47.4639C33.1968 49.1979 30.4324 51.3429 27.5856 53.3923C27.1548 53.7022 26.7128 53.9991 26.2751 54.3021C26.2047 54.2527 26.1344 54.2034 26.064 54.154C26.1187 53.9798 26.1196 53.7685 26.2351 53.6375C29.5396 49.8988 32.8503 46.1632 36.1731 42.4377C36.6837 41.8648 37.2682 41.3444 37.7884 40.7792C37.9708 40.581 38.0646 40.3204 38.3382 39.847C37.2361 39.9827 36.4319 40.0506 35.6424 40.1847C33.3792 40.5679 31.129 41.0128 28.8614 41.3698C25.2615 41.9357 21.6461 41.7707 18.0202 41.5294C14.2441 41.2773 10.4584 41.1369 6.67445 40.9773C5.1112 40.9118 3.5436 40.9342 1.97948 40.891C1.36634 40.874 0.755801 40.7861 0.140921 40.7306C-0.138728 40.214 -0.00585127 39.928 0.592528 39.8339C1.9265 39.6258 3.2544 39.3852 4.59359 39.2156C9.80617 38.5533 14.9901 37.7738 20.1393 36.7745C24.8638 35.8586 29.6899 35.7067 34.5195 35.7367C35.7379 35.7444 36.9564 35.6766 38.4502 35.6365C38.1002 35.2895 37.9856 35.1122 37.8127 35.0166C37.2534 34.7082 36.6837 34.4121 36.1001 34.143C32.773 32.6064 29.9235 30.5208 27.3459 28.1276C26.8674 27.6827 26.4314 27.18 26.0866 26.648C25.7618 26.1453 26.0857 25.7659 26.7301 25.8292C27.0515 25.8615 27.3719 25.9618 27.6724 26.0736C30.9718 27.2995 34.3058 28.4529 37.4063 30.069C38.7177 30.7529 40.1003 31.3281 41.4577 31.9402C41.7018 32.0505 41.9788 32.1037 42.2984 32.2001C42.2984 30.2594 42.2315 28.3943 42.3106 26.5339C42.5398 21.1591 42.7735 15.7836 43.1182 10.4142C43.2841 7.82819 43.6385 5.2445 44.5243 2.75257C44.7336 2.16197 44.9863 1.57908 45.2894 1.02241C45.4527 0.724025 45.7654 0.489635 46.2204 -0.000732422C46.4462 0.696268 46.6634 1.11724 46.712 1.55364C47.0724 4.75182 47.3607 7.95849 47.7481 11.1544C48.1172 14.2053 48.5801 17.2469 49.0004 20.2932C49.2453 22.0681 49.4868 23.8445 49.7343 25.6194C49.7716 25.8839 49.835 26.1453 49.9384 26.6773C50.6418 26.0003 51.1377 25.4907 51.671 25.015C53.381 23.4853 55.0945 21.9579 56.8332 20.4544C57.1493 20.1814 57.5723 19.9864 57.9796 19.8221C58.756 19.5083 59.2762 19.6996 59.4516 20.4521C59.5906 21.0481 59.634 21.698 59.5255 22.2956C59.1529 24.3272 58.525 26.2887 57.1537 28.0019C56.9157 28.2995 56.6821 28.6087 56.5153 28.9394C55.6416 30.675 54.3381 32.1137 52.7401 33.3581C52.5864 33.4777 52.4613 33.6265 52.3302 33.7668C52.3119 33.7861 52.3345 33.8346 52.3493 33.9765C52.5282 33.9958 52.7418 34.0629 52.9381 34.0351C54.035 33.8801 55.1214 33.6612 56.2227 33.544C57.6079 33.3967 59.0018 33.288 60.3948 33.234C61.7514 33.1808 63.114 33.2479 64.4723 33.2078C66.7546 33.1399 68.9719 33.5517 71.1952 33.8994C71.4922 33.9457 71.738 34.2448 72.0072 34.4268C71.7918 34.6681 71.6337 35.0081 71.3523 35.1353C68.9649 36.214 66.4967 37.1223 63.8652 37.6142C61.1547 38.12 58.3964 38.2125 55.6373 38.2649C55.164 38.2742 54.6907 38.2942 54.0202 38.315C54.2486 38.6203 54.3129 38.7946 54.4492 38.8756C58.2393 41.1462 61.4187 43.9997 64.4115 47.0399C65.9157 48.5673 67.545 49.9882 69.3748 51.2157C69.5633 51.3421 69.7413 51.4794 69.8699 51.6745C69.1516 51.6745 68.7495 51.171 68.2085 50.905C65.8462 49.7431 63.5126 48.5333 61.1191 47.4261C58.8437 46.3745 56.7168 45.1447 54.7193 43.7206C52.7531 42.3189 50.634 41.14 48.0738 40.2996C47.9661 41.0768 47.8158 41.7823 47.7793 42.4916C47.6447 45.1216 47.5978 47.7561 47.425 50.3845C47.194 53.8873 46.9065 57.3877 46.5852 60.885C46.3481 63.471 46.0111 66.0493 45.7289 68.6307C45.629 69.5389 45.5526 70.4487 45.4796 71.3586C45.4544 71.6708 45.4049 72.0031 44.9889 72C44.5425 71.9962 44.5764 71.6353 44.5634 71.3431C44.4817 69.3693 44.4427 67.394 44.2985 65.424C44.1179 62.9799 43.8973 60.5365 43.6055 58.1009C43.1912 54.6375 43.1156 51.1694 43.1895 47.6914C43.2199 46.2658 43.1669 44.8386 43.1417 43.413C43.1356 43.0922 43.0896 42.7723 43.0462 42.2657Z" fill="#FFFDE4"/>
</g>
</svg>
