<svg width="82" height="98" viewBox="0 0 82 98" fill="none" xmlns="http://www.w3.org/2000/svg">
<path fill-rule="evenodd" clip-rule="evenodd" d="M31.2026 3.45867C30.5319 3.97115 30.175 5.09622 29.8299 7.55119C29.302 11.3078 28.2295 13.6223 25.6467 16.7485C22.6983 20.3544 19.8569 21.7762 14.5541 22.2818C12.1294 22.5104 10.6957 23.1434 10.5755 23.9984C10.45 24.8917 11.8771 26.078 13.3438 26.2841C15.9331 26.648 20.8555 28.8567 22.2953 30.3108C24.0414 32.073 24.4959 33.8059 24.5364 38.4768C24.5401 45.1906 24.601 45.4643 26.0634 46.0497C27.9895 46.8889 28.7345 46.1974 30.1525 42.4902C32.7034 35.68 35.4098 32.3816 39.267 31.1791C40.4042 30.8835 41.8791 30.6735 42.5636 30.7697C44.0784 30.9826 45.7552 30.043 45.6417 29.0787C45.5606 28.2328 44.2216 27.4761 40.438 26.0334C36.7907 24.6863 34.9953 22.9171 34.3464 20.0956C33.6965 17.2731 33.6892 12 34.3165 7.53675C34.766 4.33847 34.7364 3.84145 33.9533 3.38977C32.6625 2.63986 32.1635 2.64537 31.2026 3.45867Z" fill="#6F5366"/>
<path fill-rule="evenodd" clip-rule="evenodd" d="M61.9673 40.21C61.7556 40.2941 61.4258 41.5751 61.2167 43.0634C60.281 49.7208 54.8376 55.4787 48.9162 56.1259C45.8795 56.458 44.8641 57.3011 45.7672 58.6797C46.215 59.3876 46.9553 59.795 48.6935 60.1906C55.0664 61.6556 56.4307 63.2886 56.7803 69.6711C56.9746 73.6048 57.5789 74.9797 59.1912 75.2063C60.6578 75.4125 61.3315 74.5214 62.9045 70.4179C63.7065 68.2558 64.7791 65.9405 65.2642 65.3263C66.2553 63.9487 68.8535 62.8344 71.5862 62.5361C75.6271 62.1556 75.4157 60.1153 71.0994 58.5612C67.6365 57.3157 65.8046 55.8065 65.2891 53.8C65.0571 52.9711 64.9764 50.0008 65.0696 47.208C65.2551 41.2788 65.0828 40.3827 63.4694 40.1559C62.8341 40.0666 62.1349 40.0823 61.9673 40.21Z" fill="#6F5366"/>
<mask id="mask0_202_46" style="mask-type:luminance" maskUnits="userSpaceOnUse" x="0" y="64" width="27" height="28">
<path d="M3.3858 64.0427L26.0452 67.2273L22.6594 91.3184L2.36638e-05 88.1338L3.3858 64.0427Z" fill="white"/>
</mask>
<g mask="url(#mask0_202_46)">
<path fill-rule="evenodd" clip-rule="evenodd" d="M14.5383 66.01C14.0613 66.2089 13.4212 67.2186 13.1176 68.3138C12.7659 69.4022 12.1216 70.7911 11.6366 71.4053C10.4087 73.053 6.88202 75.099 4.48069 75.5195C0.441936 76.2419 0.915625 78.5459 5.32076 79.4684C8.94385 80.281 9.83418 81.3927 10.2195 85.3907C10.5205 88.923 10.8657 89.6539 12.5273 89.8874C14.1396 90.114 14.6688 89.5434 15.7043 86.4275C16.8414 82.946 17.905 81.7681 20.0401 81.4614C24.1019 80.9327 24.0526 80.9258 24.0522 79.8635C24.0309 78.9504 23.6712 78.6721 21.2734 77.6527C17.4562 76.0914 16.98 75.2282 16.8995 70.476C16.834 66.3326 16.2371 65.263 14.5383 66.01Z" fill="#6F5366"/>
</g>
</svg>
