<svg width="28" height="29" viewBox="0 0 28 29" fill="none" xmlns="http://www.w3.org/2000/svg">
<path d="M8.12 0.5H19.88C24.36 0.5 28 4.14 28 8.62V20.38C28 22.5336 27.1445 24.5989 25.6217 26.1217C24.0989 27.6445 22.0336 28.5 19.88 28.5H8.12C3.64 28.5 0 24.86 0 20.38V8.62C0 6.46644 0.855498 4.40109 2.37829 2.87829C3.90109 1.3555 5.96644 0.5 8.12 0.5ZM7.84 3.3C6.50331 3.3 5.22137 3.831 4.27618 4.77618C3.331 5.72137 2.8 7.00331 2.8 8.34V20.66C2.8 23.446 5.054 25.7 7.84 25.7H20.16C21.4967 25.7 22.7786 25.169 23.7238 24.2238C24.669 23.2786 25.2 21.9967 25.2 20.66V8.34C25.2 5.554 22.946 3.3 20.16 3.3H7.84ZM21.35 5.4C21.8141 5.4 22.2592 5.58437 22.5874 5.91256C22.9156 6.24075 23.1 6.68587 23.1 7.15C23.1 7.61413 22.9156 8.05925 22.5874 8.38744C22.2592 8.71563 21.8141 8.9 21.35 8.9C20.8859 8.9 20.4408 8.71563 20.1126 8.38744C19.7844 8.05925 19.6 7.61413 19.6 7.15C19.6 6.68587 19.7844 6.24075 20.1126 5.91256C20.4408 5.58437 20.8859 5.4 21.35 5.4ZM14 7.5C15.8565 7.5 17.637 8.2375 18.9497 9.55025C20.2625 10.863 21 12.6435 21 14.5C21 16.3565 20.2625 18.137 18.9497 19.4497C17.637 20.7625 15.8565 21.5 14 21.5C12.1435 21.5 10.363 20.7625 9.05025 19.4497C7.7375 18.137 7 16.3565 7 14.5C7 12.6435 7.7375 10.863 9.05025 9.55025C10.363 8.2375 12.1435 7.5 14 7.5ZM14 10.3C12.8861 10.3 11.8178 10.7425 11.0302 11.5302C10.2425 12.3178 9.8 13.3861 9.8 14.5C9.8 15.6139 10.2425 16.6822 11.0302 17.4698C11.8178 18.2575 12.8861 18.7 14 18.7C15.1139 18.7 16.1822 18.2575 16.9698 17.4698C17.7575 16.6822 18.2 15.6139 18.2 14.5C18.2 13.3861 17.7575 12.3178 16.9698 11.5302C16.1822 10.7425 15.1139 10.3 14 10.3Z" fill="#4B2840"/>
</svg>
