<svg width="88" height="84" viewBox="0 0 88 84" fill="none" xmlns="http://www.w3.org/2000/svg">
<path d="M4.93856 22.5785C4.93856 20.5618 4.9271 18.8287 4.90418 17.3764C4.887 15.9269 4.74663 14.678 4.48022 13.6295C4.21095 12.584 3.69533 11.6787 2.93335 10.9139V10.6847H9.39585C10.8453 10.6847 12.4094 10.5071 14.0823 10.1462C15.761 9.77952 17.5198 9.59619 19.3531 9.59619C21.3297 9.59619 23.0255 10.1634 24.4406 11.292C25.8529 12.4149 26.9386 13.8759 27.6948 15.6691C28.4568 17.4566 28.8406 19.3787 28.8406 21.4326C28.8406 23.7644 28.6287 25.9587 28.2104 28.0212C27.7893 30.078 27.3682 32.0287 26.95 33.8764C26.5375 35.7269 26.3313 37.5488 26.3313 39.342C26.3313 41.1009 26.5375 42.9142 26.95 44.7847C27.3682 46.6496 27.7893 48.6004 28.2104 50.6399C28.6287 52.6795 28.8406 54.8795 28.8406 57.2399C28.8406 59.3024 28.4568 61.2332 27.6948 63.0264C26.9386 64.8139 25.8529 66.2748 24.4406 67.4035C23.0255 68.5264 21.3297 69.0879 19.3531 69.0879C18.2445 69.0879 17.1818 69.0105 16.1677 68.8587C15.1594 68.704 14.0537 68.5321 12.8563 68.3431C11.656 68.1511 10.2151 68.0165 8.53648 67.942C7.80887 67.942 7.39064 67.942 7.27606 67.942C7.16148 67.942 7.15002 67.942 7.24168 67.942C7.33908 67.942 7.35054 67.9306 7.27606 67.9077C7.19871 67.8905 6.84637 67.8847 6.22189 67.8847C5.59455 67.8847 4.49741 67.8847 2.93335 67.8847V67.7129C3.69533 66.9509 4.21095 66.0571 4.48022 65.0316C4.74663 64.0004 4.887 62.7514 4.90418 61.2847C4.9271 59.8123 4.93856 58.085 4.93856 56.1056V22.5785ZM9.45314 16.1733C9.45314 17.0155 9.45314 17.6056 9.45314 17.9493C9.45314 18.2931 9.45887 18.5996 9.47606 18.866C9.49898 19.1353 9.51043 19.5277 9.51043 20.0462C9.51043 20.559 9.51043 21.404 9.51043 22.5785V56.1056C9.51043 57.2457 9.51043 58.0621 9.51043 58.5577C9.51043 59.0561 9.51616 59.3998 9.53335 59.5889C9.55627 59.7808 9.56773 59.9899 9.56773 60.2191C9.56773 60.4483 9.56773 60.8694 9.56773 61.4795C9.56773 63.3129 10.0719 64.6392 11.0802 65.4556C12.0886 66.2748 13.2974 66.6816 14.7125 66.6816C16.3167 66.6816 17.8578 66.3694 19.3417 65.742C20.8313 65.109 22.0516 64.1149 23.0084 62.7629C23.9623 61.4108 24.4406 59.6662 24.4406 57.5264C24.4406 55.3207 24.2172 53.2066 23.7761 51.1899C23.3406 49.1675 22.8938 47.1738 22.4354 45.2087C21.9771 43.2465 21.7479 41.2899 21.7479 39.342C21.7479 37.3569 21.9771 35.3946 22.4354 33.4524C22.8938 31.5045 23.3406 29.5222 23.7761 27.5056C24.2172 25.4832 24.4406 23.3662 24.4406 21.1576C24.4406 19.0207 23.9623 17.2733 23.0084 15.9212C22.0516 14.5691 20.8313 13.5808 19.3417 12.9535C17.8578 12.3204 16.3167 12.0024 14.7125 12.0024C13.1914 12.0024 11.9339 12.2517 10.9427 12.7472C9.94871 13.2457 9.45314 14.3858 9.45314 16.1733Z" fill="#292929"/>
<path d="M29.9829 12.1745L33.6381 9.53908C35.0504 9.96017 36.1761 10.8654 37.0183 12.2547C37.8576 13.6469 38.5251 15.3084 39.0235 17.2391C39.5191 19.1641 39.9459 21.1865 40.3069 23.3005C40.6649 25.4175 41.0431 27.457 41.4412 29.4193C41.8451 31.3844 42.3722 33.0917 43.0225 34.5412C43.6699 35.9849 44.5293 36.9761 45.6006 37.5089C45.6006 37.5089 45.7897 37.1594 46.1735 36.4547C46.5545 35.7529 47.0215 34.7904 47.5715 33.5672C48.1215 32.3469 48.6829 30.9748 49.2558 29.4537C49.8287 27.9268 50.3043 26.3341 50.6881 24.6755C51.0691 23.0112 51.261 21.3985 51.261 19.8401C51.261 18.0841 51.1465 16.5401 50.9173 15.211C50.6881 13.8761 50.1152 12.3664 49.1985 10.6849H54.4121C54.8246 11.0688 55.1511 11.6216 55.3975 12.3464C55.6496 13.074 55.7756 14.1396 55.7756 15.5432C55.7756 17.6831 55.4118 19.7914 54.6871 21.8682C53.9681 23.9479 53.0428 26.0248 51.9142 28.1016C50.7912 30.1813 49.5996 32.2896 48.3392 34.4266C47.0845 36.5578 45.8928 38.7521 44.7642 41.0037C43.6412 43.2495 42.716 45.5841 41.9912 48.0047C41.2636 50.4281 40.9027 52.9748 40.9027 55.6474C40.9027 57.9706 41.4441 59.887 42.5298 61.3995C43.6212 62.9063 44.8931 64.2469 46.3454 65.4214L42.9652 69.0307C41.1004 67.9222 39.6595 66.381 38.6454 64.4016C37.6371 62.4164 37.1329 60.2594 37.1329 57.9276C37.1329 55.9511 37.3879 54.1063 37.9006 52.3932C38.4191 50.6745 39.1438 48.9185 40.0777 47.1224C41.0087 45.3292 42.0858 43.3469 43.309 41.1755C42.0485 40.68 41.0087 39.7948 40.1923 38.5172C39.373 37.2339 38.697 35.7185 38.1642 33.9682C37.6285 32.2123 37.1787 30.3646 36.8121 28.4224C36.4511 26.4745 36.1017 24.5495 35.7579 22.6474C35.4142 20.7396 35.0017 19.0123 34.5204 17.4682C34.0449 15.9185 33.4576 14.6896 32.7558 13.7787C32.0511 12.862 31.1287 12.4037 29.9829 12.4037V12.1745ZM41.0746 7.24741C40.2037 7.24741 39.4991 7.18439 38.9662 7.05262C38.4306 6.92371 37.9149 6.74325 37.4194 6.51408L37.534 6.28491C38.2959 6.47684 39.1725 6.46825 40.1579 6.262C41.1491 6.05002 42.1116 5.69481 43.0454 5.19637C43.985 4.7008 44.7584 4.14793 45.3715 3.53491C45.9816 2.92476 46.2881 2.3146 46.2881 1.70158C46.2881 1.39793 46.1735 1.20601 45.9444 1.12866C45.9444 1.05418 46.0017 0.951058 46.1162 0.819287C46.2308 0.681787 46.4199 0.613037 46.6892 0.613037C47.222 0.613037 47.6316 0.804964 47.9152 1.18595C48.1959 1.56981 48.3392 2.00809 48.3392 2.50366C48.3392 3.53491 47.9381 4.40575 47.136 5.11616C46.3397 5.82085 45.3772 6.3508 44.2485 6.70887C43.1256 7.06981 42.0657 7.24741 41.0746 7.24741Z" fill="#292929"/>
<path d="M62.2939 39.2847C62.2939 37.6432 62.0819 36.1279 61.6637 34.7357C61.2426 33.3464 60.747 31.9742 60.1741 30.6222C59.6069 29.2643 59.1142 27.8492 58.696 26.3826C58.2749 24.9159 58.0658 23.306 58.0658 21.5472C58.0658 19.1867 58.6845 17.1013 59.922 15.2909C61.1595 13.4805 62.8038 12.0711 64.8606 11.0628C66.9231 10.0487 69.1575 9.53882 71.5637 9.53882C73.9986 9.53882 76.2387 10.0487 78.2783 11.0628C80.3236 12.0711 81.9679 13.4805 83.2054 15.2909C84.4429 17.1013 85.0616 19.1867 85.0616 21.5472C85.0616 23.306 84.8497 24.9159 84.4314 26.3826C84.0103 27.8492 83.5148 29.2643 82.9418 30.6222C82.3689 31.9742 81.8705 33.3464 81.4523 34.7357C81.0398 36.1279 80.8335 37.6432 80.8335 39.2847C80.8335 40.9289 81.0398 42.4443 81.4523 43.8336C81.8705 45.2258 82.3689 46.6008 82.9418 47.9586C83.5148 49.3107 84.0103 50.7143 84.4314 52.1638C84.8497 53.6076 85.0616 55.2289 85.0616 57.0222C85.0616 59.3826 84.4429 61.468 83.2054 63.2784C81.9679 65.0888 80.3236 66.5039 78.2783 67.518C76.2387 68.5263 73.9986 69.0305 71.5637 69.0305C69.1575 69.0305 66.9231 68.5263 64.8606 67.518C62.8038 66.5039 61.1595 65.0888 59.922 63.2784C58.6845 61.468 58.0658 59.3826 58.0658 57.0222C58.0658 55.2289 58.2749 53.6076 58.696 52.1638C59.1142 50.7143 59.6069 49.3107 60.1741 47.9586C60.747 46.6008 61.2426 45.2258 61.6637 43.8336C62.0819 42.4443 62.2939 40.9289 62.2939 39.2847ZM71.5637 10.8565C69.7676 10.8565 68.2007 11.4753 66.8658 12.7128C65.5366 13.9503 64.5082 15.563 63.7835 17.5482C63.0559 19.5362 62.695 21.6503 62.695 23.8961C62.695 26.3425 62.884 28.8805 63.2679 31.5159C63.6489 34.1456 63.8408 36.7352 63.8408 39.2847C63.8408 41.837 63.6489 44.418 63.2679 47.0305C62.884 49.643 62.695 52.1925 62.695 54.6732C62.695 56.8818 63.0559 58.9901 63.7835 60.9982C64.5082 63.0005 65.5366 64.619 66.8658 65.8565C68.2007 67.094 69.7676 67.7128 71.5637 67.7128C73.3569 67.7128 74.921 67.094 76.2502 65.8565C77.5851 64.619 78.6163 63.0005 79.3439 60.9982C80.0687 58.9901 80.4325 56.8818 80.4325 54.6732C80.4325 52.1925 80.2405 49.643 79.8595 47.0305C79.4757 44.418 79.2866 41.837 79.2866 39.2847C79.2866 36.7352 79.4757 34.1456 79.8595 31.5159C80.2405 28.8805 80.4325 26.3425 80.4325 23.8961C80.4325 21.6503 80.0687 19.5362 79.3439 17.5482C78.6163 15.563 77.5851 13.9503 76.2502 12.7128C74.921 11.4753 73.3569 10.8565 71.5637 10.8565Z" fill="#292929"/>
<path d="M0 44.6599H88" stroke="black" stroke-width="2.2"/>
<path d="M26.3207 83.7978V78.5842H27.5353C27.8933 78.5928 28.2142 78.6587 28.4978 78.779C28.7871 78.8936 29.0306 79.0597 29.2311 79.2717C29.4288 79.478 29.5777 79.7301 29.678 80.028C29.784 80.3202 29.8384 80.6439 29.8384 81.0019V81.3801C29.8384 81.741 29.784 82.0676 29.678 82.3655C29.5777 82.6577 29.4288 82.9097 29.2311 83.1217C29.0306 83.3366 28.7871 83.5056 28.4978 83.6259C28.2142 83.7405 27.8933 83.7978 27.5353 83.7978H26.3207ZM26.9967 79.1228V83.2592H27.5353C27.816 83.2535 28.0566 83.2019 28.2571 83.1103C28.4634 83.0129 28.6353 82.8782 28.7728 82.7092C28.9103 82.5431 29.0077 82.3483 29.0707 82.1249C29.1394 81.8957 29.1738 81.6493 29.1738 81.3801V80.9905C29.1738 80.7327 29.1394 80.492 29.0707 80.2686C29.0019 80.0394 28.8988 79.8418 28.7613 79.6728C28.6295 79.5066 28.4634 79.3749 28.2571 79.2832C28.0566 79.1858 27.816 79.1314 27.5353 79.1228H26.9967Z" fill="#292929"/>
<path d="M30.9351 78.5842H34.0861V79.1571H32.8371V83.2249H34.0861V83.7978H30.9351V83.2249H32.1611V79.1571H30.9351V78.5842Z" fill="#292929"/>
<path d="M38.861 83.1104C38.6376 83.3711 38.3855 83.5659 38.1048 83.6948C37.8212 83.8151 37.509 83.8724 37.1652 83.8667C36.9504 83.8667 36.7527 83.8352 36.5694 83.775C36.3918 83.7063 36.2313 83.6203 36.0881 83.5115C35.942 83.3969 35.816 83.268 35.71 83.1219C35.6011 82.9701 35.5095 82.8068 35.435 82.6292C35.3662 82.4544 35.3118 82.2711 35.2746 82.0792C35.2431 81.8901 35.223 81.6953 35.2173 81.4948V80.8875C35.223 80.6984 35.2431 80.5065 35.2746 80.3146C35.3032 80.1255 35.3548 79.9422 35.4235 79.7646C35.4923 79.5813 35.5754 79.418 35.6756 79.2719C35.773 79.1201 35.8933 78.9911 36.0308 78.8823C36.1683 78.7677 36.323 78.6818 36.5006 78.6188C36.684 78.55 36.8816 78.5156 37.0965 78.5156C37.3399 78.5156 37.5662 78.5557 37.7725 78.6302C37.9787 78.699 38.1563 78.8078 38.311 78.951C38.4629 79.0885 38.586 79.2576 38.6777 79.4552C38.7694 79.6557 38.8267 79.8734 38.8496 80.1083H38.1965C38.1735 79.9651 38.1306 79.8276 38.0704 79.6958C38.016 79.5669 37.9444 79.4609 37.8527 79.375C37.7668 79.2833 37.6608 79.2117 37.5319 79.1573C37.4087 79.1057 37.2683 79.0771 37.1079 79.0771C36.9475 79.0771 36.8043 79.1057 36.684 79.1573C36.5608 79.2117 36.4548 79.2833 36.3631 79.375C36.2715 79.4667 36.1941 79.5755 36.134 79.6958C36.0795 79.8104 36.0337 79.9365 35.9965 80.074C35.9563 80.2057 35.9277 80.3432 35.9048 80.4865C35.8876 80.624 35.8819 80.7586 35.8819 80.8875V81.4948C35.8876 81.6266 35.8991 81.7641 35.9162 81.9073C35.9392 82.0448 35.9678 82.1823 36.0079 82.3198C36.0537 82.4516 36.111 82.5776 36.1798 82.6979C36.2485 82.8125 36.3287 82.9156 36.4204 83.0073C36.5121 83.099 36.6181 83.1734 36.7412 83.225C36.8701 83.2794 37.0162 83.3052 37.1767 83.3052C37.2597 83.3052 37.3514 83.3023 37.4517 83.2938C37.5491 83.288 37.6465 83.268 37.7381 83.2365C37.8355 83.2078 37.9243 83.1677 38.0017 83.1219C38.0847 83.076 38.1535 83.013 38.2079 82.9271L38.2194 81.7583H37.1537V81.1969H38.8496L38.861 83.1104Z" fill="#292929"/>
<path d="M40.0265 78.5842H43.1775V79.1571H41.9286V83.2249H43.1775V83.7978H40.0265V83.2249H41.2525V79.1571H40.0265V78.5842Z" fill="#292929"/>
<path d="M48.0899 79.1457H46.4857V83.7978H45.8326V79.1457H44.2284V78.5842H48.0899V79.1457Z" fill="#292929"/>
<path d="M51.6156 82.4457H49.8739L49.45 83.7978H48.7854L50.4698 78.5842H51.0312L52.6812 83.7978H52.0281L51.6156 82.4457ZM50.0458 81.8728H51.4323L50.7448 79.604L50.0458 81.8728Z" fill="#292929"/>
<path d="M54.4197 83.2363H56.9635V83.7978H53.7551V78.5842H54.4197V83.2363Z" fill="#292929"/>
<path d="M60.9476 82.4802C60.9476 82.3198 60.9075 82.188 60.833 82.0792C60.7557 81.9646 60.6612 81.8729 60.5466 81.8042C60.432 81.7297 60.3059 81.6638 60.1684 81.6094C60.0367 81.5578 59.9078 81.512 59.7789 81.4719C59.5955 81.4117 59.4065 81.3401 59.2174 81.2542C59.0255 81.1711 58.8507 81.0708 58.6903 80.9563C58.5356 80.8359 58.4096 80.6898 58.3122 80.5208C58.2119 80.3547 58.1632 80.1599 58.1632 79.9365C58.1632 79.7073 58.2119 79.5068 58.3122 79.3292C58.4096 79.1544 58.5414 79.0055 58.7018 78.8823C58.8622 78.762 59.0398 78.6703 59.2403 78.6073C59.4466 78.5471 59.6528 78.5156 59.8591 78.5156C60.0882 78.5156 60.3059 78.5557 60.5122 78.6302C60.7242 78.699 60.9132 78.8021 61.0737 78.9396C61.2341 79.0771 61.363 79.2461 61.4632 79.4438C61.5606 79.6357 61.6151 79.8505 61.6237 80.0854H60.9362C60.919 79.9336 60.8817 79.7961 60.8216 79.6729C60.7671 79.5526 60.6955 79.4495 60.6039 79.3635C60.5179 79.2719 60.4119 79.2031 60.283 79.1573C60.1599 79.1057 60.0195 79.0771 59.8591 79.0771C59.7359 79.0771 59.6127 79.0971 59.4924 79.1344C59.3692 79.1659 59.2575 79.2203 59.1601 79.2948C59.0684 79.3635 58.994 79.4523 58.9424 79.5583C58.888 79.6672 58.8622 79.7875 58.8622 79.925C58.8622 80.0797 58.8966 80.2086 58.9653 80.3146C59.0398 80.4148 59.1372 80.4979 59.2518 80.5667C59.3664 80.6354 59.4867 80.6984 59.6184 80.75C59.7559 80.7958 59.882 80.8388 59.9966 80.876C60.1255 80.9161 60.2544 80.962 60.3862 81.0135C60.5151 81.0594 60.6411 81.1167 60.7643 81.1854C60.8846 81.2542 60.9992 81.3315 61.108 81.4146C61.214 81.5005 61.3057 81.5951 61.383 81.701C61.4575 81.8099 61.5205 81.9273 61.5664 82.0563C61.6122 82.1794 61.6351 82.3169 61.6351 82.4688C61.6351 82.7065 61.5807 82.9128 61.4747 83.0875C61.3744 83.2651 61.2398 83.4083 61.0737 83.5229C60.9132 83.6375 60.7242 83.7263 60.5122 83.7865C60.3059 83.838 60.0997 83.8667 59.8934 83.8667C59.6643 83.8667 59.438 83.8323 59.2174 83.7635C58.994 83.6891 58.7963 83.5859 58.6216 83.4542C58.444 83.3167 58.3007 83.1534 58.1862 82.9615C58.0773 82.7638 58.02 82.5432 58.0143 82.2969H58.6903C58.7132 82.4573 58.7533 82.6034 58.8164 82.7323C58.8851 82.8555 58.9711 82.9615 59.0799 83.0531C59.1859 83.1391 59.3091 83.2021 59.4466 83.2479C59.5841 83.288 59.733 83.3052 59.8934 83.3052C60.0224 83.3052 60.1484 83.2909 60.2716 83.2594C60.4005 83.2307 60.5122 83.1792 60.6039 83.1104C60.7013 83.0417 60.7815 82.9586 60.8445 82.8583C60.9132 82.7523 60.9476 82.6263 60.9476 82.4802Z" fill="#292929"/>
</svg>
