<svg width="25" height="31" viewBox="0 0 25 31" fill="none" xmlns="http://www.w3.org/2000/svg">
<path d="M12.9346 1.172C13.2415 1.17202 13.3975 1.21521 13.501 1.28235C13.6005 1.34701 13.7252 1.48208 13.8555 1.82922C14.0603 2.37495 14.2196 3.26818 14.4014 4.73645L14.5928 6.4054C14.7183 7.58149 14.8857 8.79083 15.0586 9.79211C15.2256 10.7593 15.4087 11.5968 15.5811 11.9982V11.9991C16.3434 13.848 18.2638 14.9395 21.3301 15.5792C22.2455 15.7705 22.9285 16.0099 23.3887 16.2589C23.8712 16.5199 24.0156 16.7398 24.042 16.8409C24.0509 16.8753 24.0772 16.9968 23.7939 17.212C23.5053 17.4313 22.9863 17.6625 22.1865 17.8527L22.1797 17.8546C21.0149 18.15 19.9 18.6189 18.9834 19.1837C18.0849 19.7374 17.3324 20.4117 16.9385 21.1476C16.7381 21.4905 16.4842 22.2024 16.2383 23.0138C15.9863 23.8453 15.7244 24.8417 15.5146 25.799C15.0971 27.6112 14.7894 28.6411 14.459 29.2208C14.3014 29.4972 14.1576 29.6343 14.0264 29.7101C13.8959 29.7853 13.7295 29.8282 13.4736 29.8282C13.1994 29.8282 12.9907 29.7752 12.8174 29.6759C12.6426 29.5757 12.4677 29.4075 12.293 29.1232C11.9308 28.5338 11.6219 27.5341 11.3115 25.9113V25.9093L11.1113 24.9601C10.6289 22.8391 10.0193 21.3593 8.89844 20.3634C7.61922 19.2268 5.76633 18.8035 3.02832 18.5665H3.02734C1.55617 18.4425 1.07358 18.2007 0.755859 17.8263L0.750977 17.8204L0.632812 17.67C0.537383 17.5324 0.506357 17.4326 0.500977 17.3683C0.495535 17.3029 0.510242 17.2161 0.626953 17.09C0.754349 16.9524 0.985028 16.7916 1.36035 16.6232C1.73058 16.4571 2.21366 16.2962 2.81836 16.1427C7.92563 14.8467 11.9004 9.19066 11.9004 3.35364C11.9004 2.73652 11.9313 2.16504 11.9805 1.74329C12.0049 1.53375 12.031 1.37395 12.0576 1.26868C12.1044 1.25557 12.166 1.24084 12.2422 1.22766C12.4395 1.19353 12.6912 1.172 12.9346 1.172Z" fill="#4B2840" stroke="#4B2840"/>
</svg>
